<svg xmlns="http://www.w3.org/2000/svg" viewBox="0 0 64 64">
  <rect width="64" height="64" rx="12" fill="#176b87"/>
  <path d="M14 20h36v8H14z" fill="#fff"/>
  <path d="M18 32h28v6H18z" fill="#d8eef5"/>
  <path d="M22 42h20v5H22z" fill="#a9d6e5"/>
  <circle cx="8" cy="10" r="1" fill="#ffffff" opacity="0.18"/>
  <circle cx="14" cy="10" r="1" fill="#ffffff" opacity="0.26"/>
  <circle cx="20" cy="10" r="1" fill="#ffffff" opacity="0.34"/>
  <circle cx="26" cy="10" r="1" fill="#ffffff" opacity="0.42"/>
  <circle cx="32" cy="10" r="1" fill="#ffffff" opacity="0.50"/>
  <circle cx="38" cy="10" r="1" fill="#ffffff" opacity="0.18"/>
  <circle cx="44" cy="10" r="1" fill="#ffffff" opacity="0.26"/>
  <circle cx="50" cy="10" r="1" fill="#ffffff" opacity="0.34"/>
  <circle cx="8" cy="18" r="1" fill="#ffffff" opacity="0.42"/>
  <circle cx="14" cy="18" r="1" fill="#ffffff" opacity="0.50"/>
  <circle cx="20" cy="18" r="1" fill="#ffffff" opacity="0.18"/>
  <circle cx="26" cy="18" r="1" fill="#ffffff" opacity="0.26"/>
  <circle cx="32" cy="18" r="1" fill="#ffffff" opacity="0.34"/>
  <circle cx="38" cy="18" r="1" fill="#ffffff" opacity="0.42"/>
  <circle cx="44" cy="18" r="1" fill="#ffffff" opacity="0.50"/>
  <circle cx="50" cy="18" r="1" fill="#ffffff" opacity="0.18"/>
  <circle cx="8" cy="26" r="1" fill="#ffffff" opacity="0.26"/>
  <circle cx="14" cy="26" r="1" fill="#ffffff" opacity="0.34"/>
  <circle cx="20" cy="26" r="1" fill="#ffffff" opacity="0.42"/>
  <circle cx="26" cy="26" r="1" fill="#ffffff" opacity="0.50"/>
  <circle cx="32" cy="26" r="1" fill="#ffffff" opacity="0.18"/>
  <circle cx="38" cy="26" r="1" fill="#ffffff" opacity="0.26"/>
  <circle cx="44" cy="26" r="1" fill="#ffffff" opacity="0.34"/>
  <circle cx="50" cy="26" r="1" fill="#ffffff" opacity="0.42"/>
</svg>
