<svg xmlns="http://www.w3.org/2000/svg" viewBox="0 0 32 32">
  <title>View Composer</title>
  <desc>Layered tile stack for the view cache desk.</desc>
  <defs>
    <linearGradient id="bg" x1="0" y1="0" x2="1" y2="1">
      <stop offset="0" stop-color="#123240"/>
      <stop offset="1" stop-color="#1c5d78"/>
    </linearGradient>
    <linearGradient id="tile" x1="0" y1="0" x2="1" y2="0">
      <stop offset="0" stop-color="#7cc4dd"/>
      <stop offset="1" stop-color="#9fd8b9"/>
    </linearGradient>
  </defs>
  <rect width="32" height="32" rx="7" fill="url(#bg)"/>
  <g stroke="#1a4a5e" stroke-width="0.5" opacity="0.6">
    <line x1="5" y1="10" x2="27" y2="10"/>
    <line x1="5" y1="16" x2="27" y2="16"/>
    <line x1="5" y1="22" x2="27" y2="22"/>
  </g>
  <rect x="6" y="12" width="9" height="7" rx="2" fill="url(#tile)"/>
  <rect x="17" y="18" width="9" height="7" rx="2" fill="#e0b95c"/>
  <circle cx="21.5" cy="15.5" r="2.0" fill="#9fd8b9"/>
  <path d="M6 26 L12 21 L16 24 L22 19 L26 22" fill="none" stroke="url(#tile)" stroke-width="2.2" stroke-linecap="round" stroke-linejoin="round"/>
  <circle cx="6" cy="26" r="1.3" fill="#7cc4dd"/>
  <circle cx="16" cy="24" r="1.1" fill="#9fd8b9"/>
  <circle cx="26" cy="22" r="1.3" fill="#e0b95c"/>
  <rect x="4" y="27.5" width="24" height="1.1" rx="0.55" fill="#2b5a6e" opacity="0.7"/>
  <circle cx="9" cy="20" r="1.0" fill="#7cc4dd" opacity="0.85"/>
  <rect x="13.5" y="13.8" width="3.4" height="3.4" rx="0.9" fill="#9fd8b9" opacity="0.8"/>
  <path d="M9 20 L13 17 L16 19 L20 15.5" fill="none" stroke="#e0b95c" stroke-width="1.4" stroke-linecap="round" opacity="0.8"/>
</svg>
